PathFileType	4	(X/Y/Z)	D:\TRACE\v60_Jaco2_6-2-23\ArmBodyNoDRS_DMP_1-v60.trc
DataRate	CameraRate	NumFrames	NumMarkers	Units	OrigDataRate	OrigDataStartFrame	OrigNumFrames
100.00	100.00	      38	9	mm	100.00	1329	      5315
Frame#	Time	front left toe			Front right toe			aft left toe			aft right toe			Arm			FL body			FR body			AL Body			AR Body			
		X1	Y1	Z1	X2	Y2	Z2	X3	Y3	Z3	X4	Y4	Z4	X5	Y5	Z5	X6	Y6	Z6	X7	Y7	Z7	X8	Y8	Z8	X9	Y9	Z9	

1329	13.280	-62.62825	114.89148	-285.26221	313.27634	17.32790	-321.65988	-14.76164	11.85468	328.74768	361.48782	107.50327	303.87421	96.33488	1194.91760	-778.04407	36.54815	573.94183	-435.29254	195.09779	573.24115	-446.39316	114.24284	565.40411	507.51700	266.95523	552.10742	496.36505	
1330	13.290	-62.67506	107.21674	-284.73257	313.49469	17.03959	-321.72589	-14.84956	11.89609	328.72278	362.77203	99.73695	304.35547	96.96301	1194.92725	-777.90106	36.98434	573.91791	-434.95804	195.36464	573.11407	-446.11078	114.16592	565.24030	507.54977	266.98459	551.98932	496.48441	
1331	13.300	-62.34408	99.57560	-283.95270	313.32724	17.24485	-321.73938	-14.75236	11.78010	328.70816	364.75647	91.78789	305.07013	97.30096	1194.85632	-777.69080	37.42429	573.95404	-434.76236	195.65488	573.15820	-445.88141	114.14694	565.13910	507.58054	267.05585	551.83820	496.60245	
1332	13.310	-61.47338	91.06901	-282.97678	313.30704	17.23322	-321.69507	-14.72732	11.83020	328.79913	364.10852	82.95709	305.44467	97.66160	1194.75623	-777.36987	37.82708	573.96045	-434.54883	196.17690	573.31049	-445.76569	114.25804	564.98730	507.77448	267.27164	551.65637	496.80951	
1333	13.320	-60.74666	82.81194	-282.63568	313.73892	17.08637	-321.61847	-14.75855	11.85598	328.78455	364.34528	74.51400	306.14380	98.07938	1194.81226	-777.10815	38.43456	573.99628	-434.56256	197.22705	573.91913	-446.25314	114.41531	564.86200	507.98267	267.51089	551.57184	497.05984	
1334	13.330	-59.93199	74.32253	-282.18613	313.42160	17.20735	-321.69724	-14.76016	11.93209	328.71997	364.70279	66.00535	306.62158	98.27914	1194.91492	-777.04565	38.79327	574.12939	-434.75665	197.90543	574.14972	-446.07562	114.72657	564.81610	508.19650	267.68625	551.47375	497.27344	
1335	13.340	-59.28991	65.33994	-281.51996	313.41934	17.19807	-321.69122	-14.75391	11.94225	328.68741	364.90692	57.54630	307.21820	99.18340	1195.15674	-776.99512	39.45311	574.11053	-434.32465	198.31068	574.14722	-445.90714	115.00974	564.76324	508.43805	267.88794	551.43451	497.51352	
1336	13.350	-59.19591	56.97126	-281.30386	313.41092	17.20275	-321.70178	-14.79393	11.93967	328.68857	365.38464	49.55029	307.33060	99.73262	1195.22339	-776.61951	39.82799	574.05750	-434.12198	198.69109	573.93530	-445.67789	115.21235	564.48944	508.61627	268.08420	551.51166	497.43088	
1337	13.360	-58.97250	49.01781	-281.03891	313.37061	17.17336	-321.67850	-14.64921	11.84274	328.72040	365.49164	41.59899	307.27686	100.13271	1195.38123	-776.28699	39.97799	574.16180	-434.02042	199.00096	573.92053	-445.48972	115.35608	564.20050	508.77399	268.50229	551.31091	497.91666	
1338	13.370	-59.05205	41.41602	-280.88507	313.41864	17.18248	-321.65488	-14.63572	11.84792	328.77011	365.72156	34.34206	307.33011	100.70661	1195.52197	-776.03741	40.32341	574.12604	-433.80750	199.34857	573.92426	-445.38141	116.15346	563.63019	508.05612	269.47214	550.96912	498.18976	
1339	13.380	-59.35674	34.71624	-281.20215	313.51639	17.12569	-321.68347	-14.58879	11.81752	328.70544	365.76910	27.30546	306.76550	101.34277	1195.62244	-775.51770	40.82803	574.17340	-433.57111	199.71599	573.97351	-445.20850				269.65390	550.64166	498.28229	
1340	13.390	-59.34607	28.49890	-281.52951	313.58768	17.14504	-321.61588	-14.71392	11.86362	328.69177	365.63342	21.19105	306.33197	101.89113	1195.81921	-775.15582	41.13484	574.23682	-433.46454	199.61415	573.59027	-444.61667	116.24320	563.60187	508.69556	268.80994	550.44409	498.41776	
1341	13.400	-59.51759	22.65201	-281.91696	313.50171	17.00752	-321.64310	-14.62055	11.81950	328.71777	365.55173	19.92048	304.97464	102.39503	1195.83813	-774.92462	41.53335	574.22614	-433.33316	199.88573	573.54077	-444.45398	116.36484	563.58881	508.91876	269.06000	550.43262	498.61661	
1342	13.410	-60.65350	22.19207	-282.93552	313.46228	16.84790	-321.57941	-14.11082	11.57623	328.53708	367.01013	18.78315	304.79486	103.01922	1195.90088	-774.67914	41.92374	574.29297	-433.36444	200.35011	573.09778	-443.82526	116.22929	564.55701	509.57202	269.75256	551.22400	499.03644	
1343	13.420	-60.85676	20.76556	-283.14795	313.29218	16.99859	-321.38333	-13.93284	11.92985	328.71002	367.28558	19.11192	304.96851	103.54947	1196.07349	-774.95410	42.43726	574.36389	-432.97675	201.02202	573.63928	-443.49994	115.94724	565.81158	510.04257	269.04495	552.75433	499.47949	
1344	13.430	-60.42713	21.36591	-282.93414	314.15250	17.40524	-321.06668	-13.80629	12.53853	328.61447	366.23315	19.25853	305.41370	104.29223	1196.32788	-776.01282	42.99648	575.92310	-432.53195	201.56923	575.04126	-443.45840	116.22700	567.22522	510.30267	269.03464	553.60248	499.82581	
1345	13.440	-60.17157	21.38840	-282.70779	313.86414	19.82474	-320.87076	-14.19823	14.57467	327.67285	365.64783	18.53819	305.78061	104.24650	1196.53442	-776.83466	43.53834	577.62592	-432.15945	202.16833	576.33942	-442.77029	116.71912	567.23035	511.20718	269.18292	554.12109	500.38220	
1346	13.450	-59.84136	21.53036	-282.78705	310.12863	23.14277	-318.27371	-12.01401	17.90890	329.81525	366.21841	18.15538	305.45062	105.30430	1196.72327	-776.71924	44.43879	579.19666	-432.24051	202.61920	577.83887	-442.54166	116.71390	567.13495	511.26791	269.09299	553.98694	500.46002	
1347	13.460	-59.92161	21.14703	-283.08374	305.76431	27.15299	-316.33667	-8.39038	22.19186	330.70880	366.69662	18.23158	305.38409	106.43175	1197.78772	-776.07080	44.77538	579.57434	-432.35388	203.37395	579.12488	-443.40656	116.63699	567.21027	511.20914	269.90283	554.16852	500.51907	
1348	13.470	-60.02224	20.97104	-283.17923	305.24835	35.86944	-314.16220	-4.68890	29.59165	330.99423	366.16870	18.17089	305.37595	107.72992	1200.18494	-775.24762	44.98396	579.65277	-432.33337	203.85765	579.17096	-443.49701	116.54200	567.44775	511.05609	270.28586	554.60718	500.42725	
1349	13.480	-60.06117	20.95590	-283.17380	304.05426	44.69927	-314.95270	-2.59470	39.91811	330.11145	366.20547	18.14399	305.50159	109.21770	1202.55408	-774.66565	45.08171	579.52924	-432.28180	204.01529	579.02386	-443.50504	116.81929	567.66962	511.04056	270.54764	554.68652	500.44241	
1350	13.490	-60.01390	21.14831	-283.01227	305.98575	56.09522	-315.34631	-2.41491	51.02411	328.99176	366.56577	18.10686	305.45282	110.00360	1204.26257	-774.65302	45.04507	579.46710	-432.21140	203.98096	578.82739	-443.41098	117.14599	567.61707	511.02390	269.86395	554.40729	500.38672	
1351	13.500	-60.17048	20.95666	-283.12250	307.39420	67.15893	-316.70959	-4.13345	62.26510	328.87445	366.71359	17.88136	305.46561	110.38441	1204.62732	-774.57275	44.71543	579.42279	-432.32059	203.80276	578.63580	-443.27875	118.20121	566.84583	511.27652	271.44547	553.49341	500.48373	
1352	13.510	-60.32118	20.64270	-283.03906	309.43008	78.50178	-317.57193	-5.56974	72.24496	328.40448	366.99698	17.47807	305.47455	110.79456	1204.30103	-774.10248	44.71648	579.34521	-432.09576	203.75253	578.37994	-443.08875	118.63862	566.09644	511.23010	270.87973	552.63342	500.37131	
1353	13.520	-60.41683	20.47778	-282.91534	310.59952	89.52666	-318.16479	-6.52411	82.86255	328.34763	367.17557	17.34618	305.54013	110.85516	1203.72778	-774.12329	44.85117	579.03320	-431.59131	203.47318	577.39490	-442.21048	119.07983	565.26337	511.22586	271.36887	552.02277	500.56821	
1354	13.530	-60.45355	20.41985	-282.87891	311.09155	100.35620	-318.53058	-6.49339	93.20974	328.66998	367.23862	17.35533	305.56992	110.34469	1202.55298	-774.38690	45.02522	578.80219	-431.29758	203.26363	577.43549	-442.38971	120.15108	564.44495	511.29608	274.21774	551.06671	500.55209	
1355	13.540	-60.49986	20.40294	-282.87756	311.88474	110.35426	-318.12646	-6.50151	104.16783	328.66196	367.29312	17.27276	305.65228	109.63633	1201.80518	-774.76727	45.30436	578.63751	-431.08420	203.27681	577.20496	-442.31873	121.17861	564.01013	511.74005	274.77609	550.28705	500.67841	
1356	13.550	-60.65338	20.30588	-282.89847	311.55682	118.48022	-318.58228	-4.89439	113.76620	328.94449	367.52658	17.24447	305.66840	108.37288	1200.73633	-774.66437	45.64624	578.39508	-430.75552	204.08675	576.76276	-442.52319	121.94857	564.16821	512.22900	275.23129	549.95135	500.86295	
1357	13.560	-60.69546	20.23792	-282.86597	314.97513	128.32018	-317.07040	-3.54898	122.45974	329.37167	367.52878	17.20246	305.64011	107.80981	1199.81543	-774.84460	45.67846	577.60559	-430.36719	204.01442	575.63635	-441.89355	122.19209	564.22632	512.25116	277.55707	550.00555	501.08548	
1358	13.570	-60.67710	20.03641	-282.66235	315.52200	135.65450	-316.87198	-1.79391	130.24530	329.54001	367.53265	17.13989	305.67081	107.63107	1199.07861	-774.72321	45.69097	576.85168	-430.08463	204.03728	575.17767	-441.60001	122.82287	564.11060	512.36285	278.24344	550.16278	501.29572	
1359	13.580	-60.63915	20.04707	-282.48273	317.33496	141.63696	-316.42087	-2.18243	136.46489	330.71490	367.48532	17.01093	305.63275	107.68697	1198.87732	-775.05988	45.21403	576.40143	-429.72028	203.85822	574.45428	-441.09973	123.75212	564.27679	512.72491	278.91150	550.31042	501.59839	
1360	13.590	-60.62173	20.10592	-282.32132	319.28436	144.60600	-315.75366	-0.42103	139.62885	331.47360	367.55566	16.94274	305.56201	107.96503	1197.73120	-775.40051	45.32423	576.14569	-429.39822	203.79683	574.21722	-441.21042	125.31445	564.50970	513.51563	279.52509	550.40204	501.64099	
1361	13.600	-60.61133	20.21125	-282.30887	320.91687	145.34229	-314.82803	-0.29171	140.85242	332.96863	367.50259	16.79686	305.47534	108.22179	1197.09094	-775.67456	45.41269	575.99127	-429.00970	204.26779	574.29645	-441.43948	126.14394	564.78680	513.52325	280.80386	550.69342	501.71292	
1362	13.610	-60.62299	20.35229	-282.16263	322.24695	143.61795	-313.83167	0.27320	138.82191	334.63647	367.63837	16.76826	305.39127	108.14535	1196.48816	-775.83624	45.46159	575.76984	-428.68698	204.31871	574.05957	-441.42432	126.73380	564.90491	513.51758	281.81390	551.05963	501.80859	
1363	13.620	-60.68631	20.26650	-281.98569	322.41046	139.77524	-312.95859	1.48128	135.73436	336.06180	367.61383	16.68351	305.31201	107.71602	1195.63379	-776.03290	45.49031	575.51343	-428.20950	204.34012	573.85370	-441.22440	127.99523	565.39532	513.63513	282.60724	551.21912	501.91052	
1364	13.630	-60.64802	20.23457	-281.92001	323.34631	135.44734	-311.97974	2.12363	132.56378	338.15170	367.72943	16.63622	305.22131	107.51823	1195.37683	-776.15271	45.46681	575.48145	-427.90106	204.25200	573.87177	-441.13336	129.26697	566.39764	516.11963	283.68069	551.32288	501.88837	
1365	13.640	-60.65897	20.31470	-281.74326	323.20605	129.57443	-311.11774	5.85437	127.25842	339.32239	367.64487	16.62993	305.30472	107.05062	1195.55322	-776.12238	45.44793	575.42926	-427.70773	204.45087	573.60242	-440.91565	130.16711	566.20642	515.45276	284.48154	551.37598	501.79855	
1366	13.650	-60.66783	20.33214	-281.80219	322.10480	122.19890	-311.02151	7.23731	121.72143	340.76865	367.72427	16.62547	305.24231	106.62852	1195.44177	-775.99084	45.33606	575.45953	-427.77194	204.53352	573.45551	-440.87518	130.88884	566.40149	515.49365	285.37402	551.73956	501.92902	
